# xmcd CD database file
#
# Track frame offsets:
#	150
#	28405
#	51182
#	67672
#	89492
#	126772
#	138780
#	157295
#	178092
#	193732
#	212540
#	219147
#	234297
#	259072
#	274355
#	296870
#	315150
#	331785
#
# Disc length: 4714 seconds
#
# Revision: 0
# Processed by: cddbd v1.5.1PL0 Copyright (c) Steve Scherf et al.
# Submitted via: CDex 1.51
#
DISCID=0b126812
DTITLE=RADIO SAKAMOTO - DOCUMENTO
DYEAR=2004
DGENRE=Electronic
TTITLE0=holos
TTITLE1=spring chimes
TTITLE2=a
TTITLE3=4
TTITLE4=5
TTITLE5=6
TTITLE6=7
TTITLE7=8
TTITLE8=9
TTITLE9=10
TTITLE10=11
TTITLE11=12
TTITLE12=13
TTITLE13=14
TTITLE14=15
TTITLE15=16
TTITLE16=17
TTITLE17=18
EXTD=YEAR: 2004
EXTT0=
EXTT1=
EXTT2=
EXTT3=
EXTT4=
EXTT5=
EXTT6=
EXTT7=
EXTT8=
EXTT9=
EXTT10=
EXTT11=
EXTT12=
EXTT13=
EXTT14=
EXTT15=
EXTT16=
EXTT17=
PLAYORDER=
